<svg width="70" height="70" viewBox="0 0 70 70" fill="none" xmlns="http://www.w3.org/2000/svg">
<path d="M60.6886 45.5156C60.6886 45.8837 60.6787 46.2507 60.6601 46.6164C60.6416 46.9833 60.6119 47.3502 60.5747 47.7148C60.5364 48.0806 60.4881 48.4452 60.4312 48.8086C60.3743 49.1708 60.3075 49.5331 60.2321 49.893C60.1566 50.2529 60.0712 50.6116 59.9772 50.968C59.8819 51.3233 59.7793 51.6773 59.6654 52.0291C59.5529 52.3796 59.4316 52.729 59.3005 53.0749C59.1693 53.4196 59.0295 53.7632 58.8811 54.102C58.7314 54.4409 58.5743 54.7763 58.4085 55.1082C58.2415 55.44 58.067 55.7684 57.8839 56.0921C57.7008 56.4158 57.5091 56.7359 57.3086 57.0503C57.1095 57.3658 56.9016 57.6754 56.6851 57.9804C56.4699 58.2866 56.2459 58.5857 56.0146 58.8814C55.782 59.1758 55.5432 59.4656 55.297 59.7496C55.0508 60.0335 54.796 60.3105 54.5349 60.5828C54.2739 60.855 54.0067 61.1214 53.732 61.3809C53.4561 61.6403 53.1753 61.8939 52.887 62.1404C52.5988 62.387 52.3043 62.6265 52.0037 62.8591C51.7043 63.0916 51.3975 63.3183 51.0845 63.5368C50.7727 63.7553 50.4548 63.9668 50.1319 64.1713C49.809 64.3747 49.4799 64.571 49.1471 64.7603C48.8131 64.9484 48.4753 65.1295 48.1326 65.3025C47.7899 65.4754 47.4423 65.6413 47.0909 65.7979C46.7396 65.9545 46.3845 66.1041 46.0258 66.2443C45.6657 66.3845 45.3032 66.5166 44.9371 66.6404C44.5709 66.7643 44.2022 66.8788 43.831 66.9863C43.4586 67.0927 43.0838 67.1908 42.7065 67.2796C42.3291 67.3684 41.9505 67.4491 41.5695 67.5204C41.1885 67.5928 40.8049 67.6547 40.4202 67.7085C40.0354 67.7634 39.6507 67.8078 39.2634 67.844C38.8762 67.8803 38.489 67.9071 38.1005 67.9247C37.712 67.9434 37.3236 67.9515 36.9351 67.9515C36.5466 67.9515 36.1582 67.9434 35.7697 67.9247C35.3812 67.9071 34.994 67.8803 34.6068 67.844C34.2195 67.8078 33.8348 67.7634 33.45 67.7085C33.0653 67.6547 32.683 67.5928 32.3007 67.5204C31.9197 67.4491 31.5411 67.3684 31.1638 67.2796C30.7864 67.1908 30.4116 67.0927 30.0404 66.9863C29.668 66.8788 29.2994 66.7643 28.9332 66.6404C28.567 66.5166 28.2045 66.3845 27.8457 66.2443C27.4857 66.1041 27.1306 65.9545 26.7793 65.7979C26.4279 65.6413 26.0803 65.4754 25.7376 65.3025C25.3949 65.1295 25.0571 64.9484 24.7231 64.7603C24.3903 64.571 24.0612 64.3747 23.7383 64.1713C23.4154 63.9668 23.0975 63.7553 22.7857 63.5368C22.4727 63.3183 22.1671 63.0916 21.8665 62.8591C21.5659 62.6265 21.2714 62.387 20.9832 62.1404C20.6949 61.8939 20.4141 61.6403 20.1394 61.3809C19.8635 61.1214 19.5963 60.855 19.3353 60.5828C19.0742 60.3105 18.8206 60.0335 18.5732 59.7496C18.327 59.4656 18.0882 59.1758 17.8556 58.8814C17.6243 58.5857 17.4004 58.2866 17.1851 57.9804C16.9686 57.6754 16.7607 57.3658 16.5616 57.0503C16.3611 56.7359 16.1694 56.4158 15.9863 56.0921C15.8032 55.7684 15.6287 55.44 15.4617 55.1082C15.2959 54.7763 15.1388 54.4409 14.9904 54.102C14.8407 53.7632 14.7009 53.4196 14.5697 53.0749C14.4398 52.729 14.3174 52.3796 14.2048 52.0291C14.0922 51.6773 13.9883 51.3233 13.893 50.968C13.799 50.6116 13.7136 50.2529 13.6382 49.893C13.5627 49.5331 13.4959 49.1708 13.439 48.8086C13.3821 48.4452 13.3338 48.0806 13.2967 47.7148C13.2583 47.3502 13.2299 46.9833 13.2101 46.6164C13.1915 46.2507 13.1816 45.8837 13.1816 45.5156C13.1816 45.1487 13.1915 44.7818 13.2101 44.4149C13.2299 44.048 13.2583 43.6822 13.2967 43.3165C13.3338 42.9519 13.3821 42.5873 13.439 42.2239C13.4959 41.8605 13.5627 41.4994 13.6382 41.1395C13.7136 40.7784 13.799 40.4208 13.893 40.0644C13.9883 39.708 14.0922 39.3551 14.2048 39.0034C14.3174 38.6517 14.4398 38.3034 14.5697 37.9575C14.7009 37.6117 14.8407 37.2693 14.9904 36.9304C15.1388 36.5904 15.2959 36.255 15.4617 35.9231C15.6287 35.5913 15.8032 35.2641 15.9863 34.9392C16.1694 34.6155 16.3611 34.2965 16.5616 33.9822C16.7607 33.6667 16.9686 33.357 17.1851 33.0509C17.4004 32.7459 17.6243 32.4456 17.8556 32.1511C18.0882 31.8566 18.327 31.5668 18.5732 31.2829C18.8206 30.9989 19.0742 30.7208 19.3353 30.4485C19.5963 30.1774 19.8635 29.911 20.1394 29.6516C20.4141 29.3922 20.6949 29.1386 20.9832 28.892C21.2714 28.6455 21.5659 28.4059 21.8665 28.1734C22.1671 27.9397 22.4727 27.7142 22.7857 27.4956C23.0975 27.2771 23.4154 27.0656 23.7383 26.8611C24.0612 26.6578 24.3903 26.4603 24.7231 26.2722C25.0571 26.0829 25.3949 25.9029 25.7376 25.7288C26.0803 25.5559 26.4279 25.3911 26.7793 25.2345C27.1306 25.0768 27.4857 24.9284 27.8457 24.7881C28.2045 24.6479 28.567 24.5159 28.9332 24.392C29.2994 24.2681 29.668 24.1525 30.0404 24.0461C30.4116 23.9398 30.7864 23.8416 31.1638 23.7528C31.5411 23.6628 31.9197 23.5834 32.3007 23.5109C32.683 23.4397 33.0653 23.3766 33.45 23.3228C33.8348 23.269 34.2195 23.2246 34.6068 23.1884C34.994 23.1522 35.3812 23.1253 35.7697 23.1066C36.1582 23.0891 36.5466 23.0797 36.9351 23.0797C37.3236 23.0797 37.712 23.0891 38.1005 23.1066C38.489 23.1253 38.8762 23.1522 39.2634 23.1884C39.6507 23.2246 40.0354 23.269 40.4202 23.3228C40.8049 23.3766 41.1885 23.4397 41.5695 23.5109C41.9505 23.5834 42.3291 23.6628 42.7065 23.7528C43.0838 23.8416 43.4586 23.9398 43.831 24.0461C44.2022 24.1525 44.5709 24.2681 44.9371 24.392C45.3032 24.5159 45.6657 24.6479 46.0258 24.7881C46.3845 24.9284 46.7396 25.0768 47.0909 25.2345C47.4423 25.3911 47.7899 25.5559 48.1326 25.7288C48.4753 25.9029 48.8131 26.0829 49.1471 26.2722C49.4799 26.4603 49.809 26.6578 50.1319 26.8611C50.4548 27.0656 50.7727 27.2771 51.0845 27.4956C51.3975 27.7142 51.7043 27.9397 52.0037 28.1734C52.3043 28.4059 52.5988 28.6455 52.887 28.892C53.1753 29.1386 53.4561 29.3922 53.732 29.6516C54.0067 29.911 54.2739 30.1774 54.5349 30.4485C54.796 30.7208 55.0508 30.9989 55.297 31.2829C55.5432 31.5668 55.782 31.8566 56.0146 32.1511C56.2459 32.4456 56.4699 32.7459 56.6851 33.0509C56.9016 33.357 57.1095 33.6667 57.3086 33.9822C57.5091 34.2965 57.7008 34.6155 57.8839 34.9392C58.067 35.2641 58.2415 35.5913 58.4085 35.9231C58.5743 36.255 58.7314 36.5904 58.8811 36.9304C59.0295 37.2693 59.1693 37.6117 59.3005 37.9575C59.4316 38.3034 59.5529 38.6517 59.6654 39.0034C59.7793 39.3551 59.8819 39.708 59.9772 40.0644C60.0712 40.4208 60.1566 40.7784 60.2321 41.1395C60.3075 41.4994 60.3743 41.8605 60.4312 42.2239C60.4881 42.5873 60.5364 42.9519 60.5747 43.3165C60.6119 43.6822 60.6416 44.048 60.6601 44.4149C60.6787 44.7818 60.6886 45.1487 60.6886 45.5156Z" fill="white"/>
<path d="M69.9997 36.9444C69.9997 37.4855 69.9861 38.0253 69.9577 38.5664C69.9292 39.1062 69.8871 39.6461 69.8315 40.1848C69.7746 40.7223 69.7053 41.2598 69.6211 41.795C69.537 42.3291 69.4393 42.8619 69.3267 43.3936C69.2154 43.9241 69.0904 44.4511 68.9506 44.9758C68.812 45.5005 68.6586 46.0216 68.4929 46.5393C68.3271 47.0569 68.1465 47.5711 67.9535 48.0806C67.7605 48.5901 67.5551 49.0937 67.3361 49.5938C67.1159 50.094 66.8846 50.5883 66.6396 51.0767C66.3946 51.5663 66.1373 52.0489 65.8676 52.5269C65.5967 53.0036 65.3146 53.4746 65.0202 53.9385C64.7257 54.4024 64.4201 54.8593 64.1009 55.3092C63.783 55.759 63.4539 56.2007 63.1125 56.6354C62.771 57.0701 62.4184 57.4967 62.0547 57.915C61.6922 58.3322 61.3173 58.7423 60.9326 59.1431C60.5491 59.5439 60.1532 59.9354 59.7486 60.3175C59.3441 60.7008 58.9284 61.0735 58.504 61.437C58.0797 61.8004 57.6467 62.1533 57.2038 62.4968C56.7609 62.8392 56.3093 63.1722 55.8491 63.4948C55.3889 63.8173 54.9212 64.1281 54.4449 64.4284C53.9686 64.7299 53.4849 65.0185 52.9937 65.2966C52.5026 65.5747 52.004 65.8412 51.4992 66.0971C50.9932 66.3518 50.4823 66.5949 49.9639 66.8263C49.4468 67.0576 48.9235 67.2761 48.394 67.483C47.8645 67.691 47.33 67.8849 46.7906 68.0672C46.2512 68.2495 45.7081 68.419 45.16 68.5767C44.612 68.7333 44.0602 68.8782 43.5047 69.0091C42.9492 69.1411 42.39 69.2591 41.8284 69.3643C41.2667 69.4706 40.7025 69.563 40.1359 69.6424C39.5693 69.7219 39.0002 69.7873 38.4311 69.8411C37.8608 69.8937 37.2892 69.9334 36.7177 69.9603C36.1449 69.986 35.5733 70 35.0005 70C34.4277 70 33.8549 69.986 33.2821 69.9603C32.7105 69.9334 32.1389 69.8937 31.5698 69.8411C30.9995 69.7873 30.4316 69.7219 29.865 69.6424C29.2984 69.563 28.7343 69.4706 28.1714 69.3643C27.6097 69.2591 27.0517 69.1411 26.4962 69.0091C25.9395 68.8782 25.3877 68.7333 24.8397 68.5767C24.2916 68.419 23.7485 68.2495 23.2091 68.0672C22.6697 67.8849 22.1353 67.691 21.6058 67.483C21.0775 67.2761 20.5529 67.0576 20.0358 66.8263C19.5174 66.5949 19.0065 66.3518 18.5017 66.0971C17.9957 65.8412 17.4984 65.5747 17.006 65.2966C16.5148 65.0185 16.0311 64.7299 15.5548 64.4284C15.0785 64.1281 14.6109 63.8173 14.1506 63.4948C13.6904 63.1722 13.2388 62.8392 12.7959 62.4968C12.353 62.1533 11.92 61.8004 11.4957 61.437C11.0713 61.0735 10.6569 60.7008 10.2511 60.3175C9.84655 59.9354 9.4519 59.5439 9.06714 59.1431C8.68239 58.7423 8.30876 58.3322 7.94504 57.915C7.58131 57.4967 7.22872 57.0701 6.8885 56.6354C6.54705 56.2007 6.21673 55.759 5.89878 55.3092C5.58083 54.8593 5.27401 54.4024 4.97957 53.9385C4.68512 53.4746 4.40305 53.0036 4.13335 52.5269C3.86241 52.0489 3.60508 51.5663 3.36013 51.0767C3.11517 50.5883 2.88382 50.094 2.66484 49.5938C2.44463 49.0937 2.23926 48.5901 2.04626 48.0806C1.85326 47.5711 1.67388 47.0569 1.50686 46.5393C1.34108 46.0216 1.18891 45.5005 1.04911 44.9758C0.910549 44.4511 0.784359 43.9241 0.673015 43.3936C0.560433 42.8619 0.462698 42.3291 0.378571 41.795C0.294444 41.2598 0.225163 40.7223 0.168254 40.1848C0.112582 39.6461 0.0705179 39.1062 0.0420634 38.5664C0.0148458 38.0253 0 37.4855 0 36.9444C0 36.4034 0.0148458 35.8624 0.0420634 35.3225C0.0705179 34.7815 0.112582 34.2428 0.168254 33.7041C0.225163 33.1654 0.294444 32.629 0.378571 32.0938C0.462698 31.5586 0.560433 31.0258 0.673015 30.4953C0.784359 29.9648 0.910549 29.4366 1.04911 28.9119C1.18891 28.3872 1.34108 27.8661 1.50686 27.3484C1.67388 26.8307 1.85326 26.3178 2.04626 25.8083C2.23926 25.2988 2.44463 24.794 2.66484 24.2939C2.88382 23.7949 3.11517 23.3006 3.36013 22.811C3.60508 22.3225 3.86241 21.8388 4.13335 21.362C4.40305 20.8852 4.68512 20.4143 4.97957 19.9504C5.27401 19.4865 5.58083 19.0296 5.89878 18.5797C6.21673 18.1298 6.54705 17.6881 6.8885 17.2534C7.22872 16.8187 7.58131 16.3922 7.94504 15.9739C8.30876 15.5555 8.68239 15.1466 9.06714 14.7457C9.4519 14.3449 9.84655 13.9535 10.2511 13.5702C10.6569 13.1881 11.0713 12.8153 11.4957 12.4519C11.92 12.0885 12.353 11.7356 12.7959 11.392C13.2388 11.0485 13.6904 10.7155 14.1506 10.3941C14.6109 10.0716 15.0785 9.7596 15.5548 9.45928C16.0311 9.15897 16.5148 8.86917 17.006 8.59106C17.4984 8.31295 17.9957 8.04652 18.5017 7.79178C19.0065 7.53704 19.5174 7.29399 20.0358 7.06262C20.5529 6.83125 21.0775 6.61156 21.6058 6.40473C22.1353 6.1979 22.6697 6.00275 23.2091 5.82046C23.7485 5.63817 24.2916 5.46873 24.8397 5.31215C25.3877 5.1544 25.9395 5.01067 26.4962 4.87979C27.0517 4.74774 27.6097 4.62972 28.1714 4.52339C28.7343 4.41822 29.2984 4.3259 29.865 4.24644C30.4316 4.16698 30.9995 4.10038 31.5698 4.04779C32.1389 3.99521 32.7105 3.95548 33.2821 3.9286C33.8549 3.90172 34.4277 3.88887 35.0005 3.88887C35.5733 3.88887 36.1449 3.90172 36.7177 3.9286C37.2892 3.95548 37.8608 3.99521 38.4311 4.04779C39.0002 4.10038 39.5693 4.16698 40.1359 4.24644C40.7025 4.3259 41.2667 4.41822 41.8284 4.52339C42.39 4.62972 42.9492 4.74774 43.5047 4.87979C44.0602 5.01067 44.612 5.1544 45.16 5.31215C45.7081 5.46873 46.2512 5.63817 46.7906 5.82046C47.33 6.00275 47.8645 6.1979 48.394 6.40473C48.9235 6.61156 49.4468 6.83125 49.9639 7.06262C50.4823 7.29399 50.9932 7.53704 51.4992 7.79178C52.004 8.04652 52.5026 8.31295 52.9937 8.59106C53.4849 8.86917 53.9686 9.15897 54.4449 9.45928C54.9212 9.7596 55.3889 10.0716 55.8491 10.3941C56.3093 10.7155 56.7609 11.0485 57.2038 11.392C57.6467 11.7356 58.0797 12.0885 58.504 12.4519C58.9284 12.8153 59.3441 13.1881 59.7486 13.5702C60.1532 13.9535 60.5491 14.3449 60.9326 14.7457C61.3173 15.1466 61.6922 15.5555 62.0547 15.9739C62.4184 16.3922 62.771 16.8187 63.1125 17.2534C63.4539 17.6881 63.783 18.1298 64.1009 18.5797C64.4201 19.0296 64.7257 19.4865 65.0202 19.9504C65.3146 20.4143 65.5967 20.8852 65.8676 21.362C66.1373 21.8388 66.3946 22.3225 66.6396 22.811C66.8846 23.3006 67.1159 23.7949 67.3361 24.2939C67.5551 24.794 67.7605 25.2988 67.9535 25.8083C68.1465 26.3178 68.3271 26.8307 68.4929 27.3484C68.6586 27.8661 68.812 28.3872 68.9506 28.9119C69.0904 29.4366 69.2154 29.9648 69.3267 30.4953C69.4393 31.0258 69.537 31.5586 69.6211 32.0938C69.7053 32.629 69.7746 33.1654 69.8315 33.7041C69.8871 34.2428 69.9292 34.7815 69.9577 35.3225C69.9861 35.8624 69.9997 36.4034 69.9997 36.9444Z" fill="#1A1A1A"/>
<path d="M69.9997 33.0556C69.9997 33.5966 69.9861 34.1365 69.9577 34.6775C69.9292 35.2174 69.8871 35.7572 69.8315 36.2959C69.7746 36.8334 69.7053 37.371 69.6211 37.9062C69.537 38.4402 69.4393 38.973 69.3267 39.5047C69.2154 40.0352 69.0904 40.5622 68.9506 41.0869C68.812 41.6116 68.6586 42.1328 68.4929 42.6504C68.3271 43.1681 68.1465 43.6822 67.9535 44.1917C67.7605 44.7012 67.5551 45.2048 67.3361 45.705C67.1159 46.2051 66.8846 46.6994 66.6396 47.1878C66.3946 47.6775 66.1373 48.1601 65.8676 48.638C65.5967 49.1148 65.3146 49.5857 65.0202 50.0496C64.7257 50.5135 64.4201 50.9704 64.1009 51.4203C63.783 51.8702 63.4539 52.3119 63.1125 52.7466C62.771 53.1813 62.4184 53.6078 62.0547 54.0261C61.6922 54.4433 61.3173 54.8534 60.9326 55.2543C60.5491 55.6551 60.1532 56.0465 59.7486 56.4286C59.3441 56.8119 58.9284 57.1847 58.504 57.5481C58.0797 57.9115 57.6467 58.2644 57.2038 58.608C56.7609 58.9503 56.3093 59.2834 55.8491 59.6059C55.3889 59.9284 54.9212 60.2392 54.4449 60.5395C53.9686 60.841 53.4849 61.1297 52.9937 61.4078C52.5026 61.6859 52.004 61.9523 51.4992 62.2082C50.9932 62.463 50.4823 62.706 49.9639 62.9374C49.4468 63.1688 48.9235 63.3873 48.394 63.5941C47.8645 63.8021 47.33 63.9961 46.7906 64.1784C46.2512 64.3607 45.7081 64.5301 45.16 64.6878C44.612 64.8444 44.0602 64.9893 43.5047 65.1202C42.9492 65.2523 42.39 65.3703 41.8284 65.4754C41.2667 65.5818 40.7025 65.6741 40.1359 65.7536C39.5693 65.833 39.0002 65.8985 38.4311 65.9522C37.8608 66.0048 37.2892 66.0445 36.7177 66.0714C36.1449 66.0971 35.5733 66.1111 35.0005 66.1111C34.4277 66.1111 33.8549 66.0971 33.2821 66.0714C32.7105 66.0445 32.1389 66.0048 31.5698 65.9522C30.9995 65.8985 30.4316 65.833 29.865 65.7536C29.2984 65.6741 28.7343 65.5818 28.1714 65.4754C27.6097 65.3703 27.0517 65.2523 26.4962 65.1202C25.9395 64.9893 25.3877 64.8444 24.8397 64.6878C24.2916 64.5301 23.7485 64.3607 23.2091 64.1784C22.6697 63.9961 22.1353 63.8021 21.6058 63.5941C21.0775 63.3873 20.5529 63.1688 20.0358 62.9374C19.5174 62.706 19.0065 62.463 18.5017 62.2082C17.9957 61.9523 17.4984 61.6859 17.006 61.4078C16.5148 61.1297 16.0311 60.841 15.5548 60.5395C15.0785 60.2392 14.6109 59.9284 14.1506 59.6059C13.6904 59.2834 13.2388 58.9503 12.7959 58.608C12.353 58.2644 11.92 57.9115 11.4957 57.5481C11.0713 57.1847 10.6569 56.8119 10.2511 56.4286C9.84655 56.0465 9.4519 55.6551 9.06714 55.2543C8.68239 54.8534 8.30876 54.4433 7.94504 54.0261C7.58131 53.6078 7.22872 53.1813 6.8885 52.7466C6.54705 52.3119 6.21673 51.8702 5.89878 51.4203C5.58083 50.9704 5.27401 50.5135 4.97957 50.0496C4.68512 49.5857 4.40305 49.1148 4.13335 48.638C3.86241 48.1601 3.60508 47.6775 3.36013 47.1878C3.11517 46.6994 2.88382 46.2051 2.66484 45.705C2.44463 45.2048 2.23926 44.7012 2.04626 44.1917C1.85326 43.6822 1.67388 43.1681 1.50686 42.6504C1.34108 42.1328 1.18891 41.6116 1.04911 41.0869C0.910549 40.5622 0.784359 40.0352 0.673015 39.5047C0.560433 38.973 0.462698 38.4402 0.378571 37.9062C0.294444 37.371 0.225163 36.8334 0.168254 36.2959C0.112582 35.7572 0.0705179 35.2174 0.0420634 34.6775C0.0148458 34.1365 0 33.5966 0 33.0556C0 32.5145 0.0148458 31.9735 0.0420634 31.4336C0.0705179 30.8926 0.112582 30.3539 0.168254 29.8152C0.225163 29.2765 0.294444 28.7402 0.378571 28.205C0.462698 27.6698 0.560433 27.1369 0.673015 26.6064C0.784359 26.0759 0.910549 25.5477 1.04911 25.023C1.18891 24.4984 1.34108 23.9772 1.50686 23.4595C1.67388 22.9419 1.85326 22.4289 2.04626 21.9194C2.23926 21.4099 2.44463 20.9051 2.66484 20.405C2.88382 19.906 3.11517 19.4117 3.36013 18.9221C3.60508 18.4337 3.86241 17.9499 4.13335 17.4731C4.40305 16.9964 4.68512 16.5254 4.97957 16.0615C5.27401 15.5976 5.58083 15.1407 5.89878 14.6908C6.21673 14.241 6.54705 13.7992 6.8885 13.3646C7.22872 12.9299 7.58131 12.5033 7.94504 12.085C8.30876 11.6667 8.68239 11.2577 9.06714 10.8569C9.4519 10.4561 9.84655 10.0646 10.2511 9.68133C10.6569 9.29921 11.0713 8.92645 11.4957 8.56304C11.92 8.19962 12.353 7.84672 12.7959 7.50317C13.2388 7.15962 13.6904 6.82659 14.1506 6.50524C14.6109 6.18273 15.0785 5.87073 15.5548 5.57041C16.0311 5.2701 16.5148 4.9803 17.006 4.70219C17.4984 4.42408 17.9957 4.15765 18.5017 3.90291C19.0065 3.64817 19.5174 3.40512 20.0358 3.17375C20.5529 2.94238 21.0775 2.72269 21.6058 2.51586C22.1353 2.30903 22.6697 2.11388 23.2091 1.93159C23.7485 1.7493 24.2916 1.57986 24.8397 1.42328C25.3877 1.26553 25.9395 1.1218 26.4962 0.990919C27.0517 0.858874 27.6097 0.740852 28.1714 0.634515C28.7343 0.529347 29.2984 0.437033 29.865 0.357572C30.4316 0.278112 30.9995 0.211505 31.5698 0.158921C32.1389 0.106337 32.7105 0.0666067 33.2821 0.0397302C33.8549 0.0128538 34.4277 0 35.0005 0C35.5733 0 36.1449 0.0128538 36.7177 0.0397302C37.2892 0.0666067 37.8608 0.106337 38.4311 0.158921C39.0002 0.211505 39.5693 0.278112 40.1359 0.357572C40.7025 0.437033 41.2667 0.529347 41.8284 0.634515C42.39 0.740852 42.9492 0.858874 43.5047 0.990919C44.0602 1.1218 44.612 1.26553 45.16 1.42328C45.7081 1.57986 46.2512 1.7493 46.7906 1.93159C47.33 2.11388 47.8645 2.30903 48.394 2.51586C48.9235 2.72269 49.4468 2.94238 49.9639 3.17375C50.4823 3.40512 50.9932 3.64817 51.4992 3.90291C52.004 4.15765 52.5026 4.42408 52.9937 4.70219C53.4849 4.9803 53.9686 5.2701 54.4449 5.57041C54.9212 5.87073 55.3889 6.18273 55.8491 6.50524C56.3093 6.82659 56.7609 7.15962 57.2038 7.50317C57.6467 7.84672 58.0797 8.19962 58.504 8.56304C58.9284 8.92645 59.3441 9.29921 59.7486 9.68133C60.1532 10.0646 60.5491 10.4561 60.9326 10.8569C61.3173 11.2577 61.6922 11.6667 62.0547 12.085C62.4184 12.5033 62.771 12.9299 63.1125 13.3646C63.4539 13.7992 63.783 14.241 64.1009 14.6908C64.4201 15.1407 64.7257 15.5976 65.0202 16.0615C65.3146 16.5254 65.5967 16.9964 65.8676 17.4731C66.1373 17.9499 66.3946 18.4337 66.6396 18.9221C66.8846 19.4117 67.1159 19.906 67.3361 20.405C67.5551 20.9051 67.7605 21.4099 67.9535 21.9194C68.1465 22.4289 68.3271 22.9419 68.4929 23.4595C68.6586 23.9772 68.812 24.4984 68.9506 25.023C69.0904 25.5477 69.2154 26.0759 69.3267 26.6064C69.4393 27.1369 69.537 27.6698 69.6211 28.205C69.7053 28.7402 69.7746 29.2765 69.8315 29.8152C69.8871 30.3539 69.9292 30.8926 69.9577 31.4336C69.9861 31.9735 69.9997 32.5145 69.9997 33.0556Z" fill="#FEFD02"/>
<path d="M63.8234 35C63.8234 35.4452 63.8111 35.8904 63.7888 36.3356C63.7653 36.7808 63.7306 37.2248 63.6836 37.6677C63.6379 38.1118 63.5797 38.5535 63.5104 38.994C63.4424 39.4345 63.3607 39.8739 63.2692 40.3109C63.1776 40.748 63.0737 41.1815 62.9587 41.6139C62.8448 42.0462 62.7187 42.4751 62.5813 42.9016C62.4452 43.3281 62.2968 43.7511 62.1384 44.1706C61.9788 44.5901 61.8093 45.0061 61.6287 45.4175C61.4481 45.8288 61.2576 46.2354 61.0559 46.6386C60.8543 47.0417 60.6415 47.439 60.42 47.8317C60.1973 48.2254 59.9647 48.6122 59.7223 48.9943C59.4798 49.3765 59.2274 49.7527 58.9651 50.1232C58.7028 50.4936 58.4319 50.8582 58.1511 51.2157C57.8702 51.5733 57.5795 51.925 57.2801 52.2698C56.9807 52.6133 56.6727 52.951 56.3559 53.2805C56.0392 53.6112 55.7139 53.9337 55.3811 54.2493C55.047 54.5636 54.7056 54.8709 54.3567 55.1701C54.0066 55.4692 53.649 55.7602 53.2853 56.043C52.9203 56.3257 52.5492 56.5992 52.1694 56.8644C51.7908 57.1297 51.4048 57.3868 51.0127 57.6345C50.6205 57.8822 50.2221 58.1194 49.8176 58.3485C49.413 58.5775 49.0035 58.7972 48.5866 59.0075C48.1709 59.2179 47.7503 59.4177 47.3234 59.6082C46.8966 59.7986 46.4661 59.9798 46.0294 60.1492C45.5939 60.3198 45.1547 60.4811 44.7106 60.6306C44.2664 60.7802 43.8186 60.9204 43.367 61.0501C42.9154 61.1787 42.4602 61.2979 42.0037 61.4065C41.5459 61.514 41.0857 61.6122 40.623 61.6987C40.1603 61.7863 39.6951 61.8623 39.2287 61.9277C38.7623 61.9931 38.2947 62.0469 37.8245 62.0913C37.3556 62.1345 36.8855 62.1673 36.4142 62.1895C35.9428 62.2105 35.4715 62.2222 35.0001 62.2222C34.5275 62.2222 34.0561 62.2105 33.5848 62.1895C33.1147 62.1673 32.6433 62.1345 32.1744 62.0913C31.7055 62.0469 31.2367 61.9931 30.7702 61.9277C30.3038 61.8623 29.8387 61.7863 29.376 61.6987C28.9133 61.6122 28.4543 61.514 27.9965 61.4065C27.5388 61.2979 27.0835 61.1787 26.6332 61.0501C26.1816 60.9204 25.7338 60.7802 25.2896 60.6306C24.8455 60.4811 24.4051 60.3198 23.9696 60.1492C23.5341 59.9798 23.1023 59.7986 22.6755 59.6082C22.2499 59.4177 21.8281 59.2179 21.4124 59.0075C20.9967 58.7972 20.586 58.5775 20.1814 58.3485C19.7769 58.1194 19.3785 57.8822 18.9863 57.6345C18.5941 57.3868 18.2081 57.1297 17.8296 56.8644C17.451 56.5992 17.0786 56.3257 16.7149 56.043C16.3499 55.7602 15.9924 55.4692 15.6435 55.1701C15.2934 54.8709 14.9519 54.5636 14.6179 54.2493C14.2851 53.9337 13.9597 53.6112 13.643 53.2805C13.3263 52.951 13.0182 52.6133 12.7189 52.2698C12.4195 51.925 12.13 51.5733 11.8479 51.2157C11.5671 50.8582 11.2961 50.4936 11.0338 50.1232C10.7716 49.7527 10.5192 49.3765 10.2767 48.9943C10.0342 48.6122 9.80163 48.2254 9.58018 47.8317C9.35749 47.439 9.1447 47.0417 8.94305 46.6386C8.74139 46.2354 8.55087 45.8288 8.37024 45.4175C8.18962 45.0061 8.02013 44.5901 7.86177 44.1706C7.70218 43.7511 7.55495 43.3281 7.41763 42.9016C7.2803 42.4751 7.15411 42.0462 7.0403 41.6139C6.92524 41.1815 6.82256 40.748 6.72977 40.3109C6.63822 39.8739 6.5578 39.4345 6.48852 38.994C6.41924 38.5535 6.36109 38.1118 6.31532 37.6677C6.26831 37.2248 6.23367 36.7808 6.2114 36.3356C6.18789 35.8904 6.17676 35.4452 6.17676 35C6.17676 34.5547 6.18789 34.1095 6.2114 33.6643C6.23367 33.2191 6.26831 32.7751 6.31532 32.331C6.36109 31.8881 6.41924 31.4464 6.48852 31.0059C6.5578 30.5642 6.63822 30.126 6.72977 29.689C6.82256 29.2519 6.92524 28.8172 7.0403 28.3849C7.15411 27.9525 7.2803 27.5237 7.41763 27.0971C7.55495 26.6706 7.70218 26.2488 7.86177 25.8293C8.02013 25.4098 8.18962 24.9938 8.37024 24.5824C8.55087 24.1711 8.74139 23.7633 8.94305 23.3602C9.1447 22.9582 9.35749 22.5597 9.58018 22.1671C9.80163 21.7745 10.0342 21.3865 10.2767 21.0044C10.5192 20.6223 10.7716 20.246 11.0338 19.8756C11.2961 19.5052 11.5671 19.1417 11.8479 18.783C12.13 18.4254 12.4195 18.0749 12.7189 17.7302C13.0182 17.3854 13.3263 17.0489 13.643 16.7182C13.9597 16.3887 14.2851 16.0662 14.6179 15.7506C14.9519 15.4351 15.2934 15.129 15.6435 14.8298C15.9924 14.5307 16.3499 14.2397 16.7149 13.9569C17.0786 13.6742 17.451 13.3996 17.8296 13.1343C18.2081 12.869 18.5941 12.6131 18.9863 12.3654C19.3785 12.1177 19.7769 11.8793 20.1814 11.6503C20.586 11.4212 20.9967 11.2015 21.4124 10.9924C21.8281 10.782 22.2499 10.581 22.6755 10.3906C23.1023 10.2001 23.5341 10.0201 23.9696 9.84954C24.4051 9.67893 24.8455 9.51884 25.2896 9.36927C25.7338 9.21853 26.1816 9.07947 26.6332 8.94977C27.0835 8.82006 27.5388 8.70204 27.9965 8.59336C28.4543 8.48469 28.9133 8.3877 29.376 8.30006C29.8387 8.21359 30.3038 8.13763 30.7702 8.0722C31.2367 8.00676 31.7055 7.95184 32.1744 7.9086C32.6433 7.86537 33.1147 7.83265 33.5848 7.81044C34.0561 7.78824 34.5275 7.77773 35.0001 7.77773C35.4715 7.77773 35.9428 7.78824 36.4142 7.81044C36.8855 7.83265 37.3556 7.86537 37.8245 7.9086C38.2947 7.95184 38.7623 8.00676 39.2287 8.0722C39.6951 8.13763 40.1603 8.21359 40.623 8.30006C41.0857 8.3877 41.5459 8.48469 42.0037 8.59336C42.4602 8.70204 42.9154 8.82006 43.367 8.94977C43.8186 9.07947 44.2664 9.21853 44.7106 9.36927C45.1547 9.51884 45.5939 9.67893 46.0294 9.84954C46.4661 10.0201 46.8966 10.2001 47.3234 10.3906C47.7503 10.581 48.1709 10.782 48.5866 10.9924C49.0035 11.2015 49.413 11.4212 49.8176 11.6503C50.2221 11.8793 50.6205 12.1177 51.0127 12.3654C51.4048 12.6131 51.7908 12.869 52.1694 13.1343C52.5492 13.3996 52.9203 13.6742 53.2853 13.9569C53.649 14.2397 54.0066 14.5307 54.3567 14.8298C54.7056 15.129 55.047 15.4351 55.3811 15.7506C55.7139 16.0662 56.0392 16.3887 56.3559 16.7182C56.6727 17.0489 56.9807 17.3854 57.2801 17.7302C57.5795 18.0749 57.8702 18.4254 58.1511 18.783C58.4319 19.1417 58.7028 19.5052 58.9651 19.8756C59.2274 20.246 59.4798 20.6223 59.7223 21.0044C59.9647 21.3865 60.1973 21.7745 60.42 22.1671C60.6415 22.5597 60.8543 22.9582 61.0559 23.3602C61.2576 23.7633 61.4481 24.1711 61.6287 24.5824C61.8093 24.9938 61.9788 25.4098 62.1384 25.8293C62.2968 26.2488 62.4452 26.6706 62.5813 27.0971C62.7187 27.5237 62.8448 27.9525 62.9587 28.3849C63.0737 28.8172 63.1776 29.2519 63.2692 29.689C63.3607 30.126 63.4424 30.5642 63.5104 31.0059C63.5797 31.4464 63.6379 31.8881 63.6836 32.331C63.7306 32.7751 63.7653 33.2191 63.7888 33.6643C63.8111 34.1095 63.8234 34.5547 63.8234 35Z" fill="white"/>
<path d="M63.8234 33.0556C63.8234 33.5008 63.8111 33.946 63.7888 34.3912C63.7653 34.8364 63.7306 35.2804 63.6836 35.7233C63.6379 36.1674 63.5797 36.6091 63.5104 37.0496C63.4424 37.4902 63.3607 37.9295 63.2692 38.3666C63.1776 38.8036 63.0737 39.2371 62.9587 39.6695C62.8448 40.1018 62.7187 40.5307 62.5813 40.9572C62.4452 41.3837 62.2968 41.8067 62.1384 42.2262C61.9788 42.6457 61.8093 43.0617 61.6287 43.4731C61.4481 43.8844 61.2576 44.291 61.0559 44.6942C60.8543 45.0973 60.6415 45.4946 60.42 45.8873C60.1973 46.2811 59.9647 46.6678 59.7223 47.0499C59.4798 47.4321 59.2274 47.8083 58.9651 48.1788C58.7028 48.5492 58.4319 48.9138 58.1511 49.2713C57.8702 49.6289 57.5795 49.9806 57.2801 50.3254C56.9807 50.6689 56.6727 51.0066 56.3559 51.3361C56.0392 51.6668 55.7139 51.9894 55.3811 52.3049C55.047 52.6192 54.7056 52.9265 54.3567 53.2257C54.0066 53.5248 53.649 53.8158 53.2853 54.0986C52.9203 54.3813 52.5492 54.6548 52.1694 54.92C51.7908 55.1853 51.4048 55.4424 51.0127 55.6901C50.6205 55.9378 50.2221 56.175 49.8176 56.4041C49.413 56.6331 49.0035 56.8528 48.5866 57.0631C48.1709 57.2735 47.7503 57.4733 47.3234 57.6638C46.8966 57.8542 46.4661 58.0354 46.0294 58.2048C45.5939 58.3754 45.1547 58.5367 44.7106 58.6862C44.2664 58.8358 43.8186 58.976 43.367 59.1057C42.9154 59.2343 42.4602 59.3535 42.0037 59.4621C41.5459 59.5696 41.0857 59.6678 40.623 59.7543C40.1603 59.8419 39.6951 59.9179 39.2287 59.9833C38.7623 60.0487 38.2947 60.1025 37.8245 60.1469C37.3556 60.1901 36.8855 60.2229 36.4142 60.2451C35.9428 60.2661 35.4715 60.2778 35.0001 60.2778C34.5275 60.2778 34.0561 60.2661 33.5848 60.2451C33.1147 60.2229 32.6433 60.1901 32.1744 60.1469C31.7055 60.1025 31.2367 60.0487 30.7702 59.9833C30.3038 59.9179 29.8387 59.8419 29.376 59.7543C28.9133 59.6678 28.4543 59.5696 27.9965 59.4621C27.5388 59.3535 27.0835 59.2343 26.6332 59.1057C26.1816 58.976 25.7338 58.8358 25.2896 58.6862C24.8455 58.5367 24.4051 58.3754 23.9696 58.2048C23.5341 58.0354 23.1023 57.8542 22.6755 57.6638C22.2499 57.4733 21.8281 57.2735 21.4124 57.0631C20.9967 56.8528 20.586 56.6331 20.1814 56.4041C19.7769 56.175 19.3785 55.9378 18.9863 55.6901C18.5941 55.4424 18.2081 55.1853 17.8296 54.92C17.451 54.6548 17.0786 54.3813 16.7149 54.0986C16.3499 53.8158 15.9924 53.5248 15.6435 53.2257C15.2934 52.9265 14.9519 52.6192 14.6179 52.3049C14.2851 51.9894 13.9597 51.6668 13.643 51.3361C13.3263 51.0066 13.0182 50.6689 12.7189 50.3254C12.4195 49.9806 12.13 49.6289 11.8479 49.2713C11.5671 48.9138 11.2961 48.5492 11.0338 48.1788C10.7716 47.8083 10.5192 47.4321 10.2767 47.0499C10.0342 46.6678 9.80163 46.2811 9.58018 45.8873C9.35749 45.4946 9.1447 45.0973 8.94305 44.6942C8.74139 44.291 8.55087 43.8844 8.37024 43.4731C8.18962 43.0617 8.02013 42.6457 7.86177 42.2262C7.70218 41.8067 7.55495 41.3837 7.41763 40.9572C7.2803 40.5307 7.15411 40.1018 7.0403 39.6695C6.92524 39.2371 6.82256 38.8036 6.72977 38.3666C6.63822 37.9295 6.5578 37.4902 6.48852 37.0496C6.41924 36.6091 6.36109 36.1674 6.31532 35.7233C6.26831 35.2804 6.23367 34.8364 6.2114 34.3912C6.18789 33.946 6.17676 33.5008 6.17676 33.0556C6.17676 32.6103 6.18789 32.1651 6.2114 31.7199C6.23367 31.2747 6.26831 30.8307 6.31532 30.3866C6.36109 29.9437 6.41924 29.502 6.48852 29.0615C6.5578 28.6198 6.63822 28.1816 6.72977 27.7446C6.82256 27.3075 6.92524 26.8728 7.0403 26.4405C7.15411 26.0093 7.2803 25.5793 7.41763 25.1527C7.55495 24.7262 7.70218 24.3044 7.86177 23.8849C8.02013 23.4654 8.18962 23.0494 8.37024 22.6381C8.55087 22.2267 8.74139 21.8189 8.94305 21.4158C9.1447 21.0138 9.35749 20.6153 9.58018 20.2227C9.80163 19.8301 10.0342 19.4421 10.2767 19.06C10.5192 18.6779 10.7716 18.3016 11.0338 17.9312C11.2961 17.5608 11.5671 17.1973 11.8479 16.8386C12.13 16.481 12.4195 16.1305 12.7189 15.7858C13.0182 15.441 13.3263 15.1045 13.643 14.7738C13.9597 14.4443 14.2851 14.1218 14.6179 13.8063C14.9519 13.4907 15.2934 13.1846 15.6435 12.8854C15.9924 12.5863 16.3499 12.2953 16.7149 12.0125C17.0786 11.7298 17.451 11.4552 17.8296 11.1899C18.2081 10.9246 18.5941 10.6687 18.9863 10.421C19.3785 10.1733 19.7769 9.93489 20.1814 9.70586C20.586 9.47683 20.9967 9.25714 21.4124 9.04797C21.8281 8.83764 22.2499 8.63665 22.6755 8.44618C23.1023 8.2557 23.5341 8.07575 23.9696 7.90514C24.4051 7.73454 24.8455 7.57445 25.2896 7.42487C25.7338 7.27413 26.1816 7.13508 26.6332 7.00537C27.0835 6.87566 27.5388 6.75764 27.9965 6.64897C28.4543 6.54029 28.9133 6.4433 29.376 6.35566C29.8387 6.26919 30.3038 6.19324 30.7702 6.1278C31.2367 6.06236 31.7055 6.00744 32.1744 5.9642C32.6433 5.92097 33.1147 5.88825 33.5848 5.86605C34.0561 5.84385 34.5275 5.83333 35.0001 5.83333C35.4715 5.83333 35.9428 5.84385 36.4142 5.86605C36.8855 5.88825 37.3556 5.92097 37.8245 5.9642C38.2947 6.00744 38.7623 6.06236 39.2287 6.1278C39.6951 6.19324 40.1603 6.26919 40.623 6.35566C41.0857 6.4433 41.5459 6.54029 42.0037 6.64897C42.4602 6.75764 42.9154 6.87566 43.367 7.00537C43.8186 7.13508 44.2664 7.27413 44.7106 7.42487C45.1547 7.57445 45.5939 7.73454 46.0294 7.90514C46.4661 8.07575 46.8966 8.2557 47.3234 8.44618C47.7503 8.63665 48.1709 8.83764 48.5866 9.04797C49.0035 9.25714 49.413 9.47683 49.8176 9.70586C50.2221 9.93489 50.6205 10.1733 51.0127 10.421C51.4048 10.6687 51.7908 10.9246 52.1694 11.1899C52.5492 11.4552 52.9203 11.7298 53.2853 12.0125C53.649 12.2953 54.0066 12.5863 54.3567 12.8854C54.7056 13.1846 55.047 13.4907 55.3811 13.8063C55.7139 14.1218 56.0392 14.4443 56.3559 14.7738C56.6727 15.1045 56.9807 15.441 57.2801 15.7858C57.5795 16.1305 57.8702 16.481 58.1511 16.8386C58.4319 17.1973 58.7028 17.5608 58.9651 17.9312C59.2274 18.3016 59.4798 18.6779 59.7223 19.06C59.9647 19.4421 60.1973 19.8301 60.42 20.2227C60.6415 20.6153 60.8543 21.0138 61.0559 21.4158C61.2576 21.8189 61.4481 22.2267 61.6287 22.6381C61.8093 23.0494 61.9788 23.4654 62.1384 23.8849C62.2968 24.3044 62.4452 24.7262 62.5813 25.1527C62.7187 25.5793 62.8448 26.0093 62.9587 26.4405C63.0737 26.8728 63.1776 27.3075 63.2692 27.7446C63.3607 28.1816 63.4424 28.6198 63.5104 29.0615C63.5797 29.502 63.6379 29.9437 63.6836 30.3866C63.7306 30.8307 63.7653 31.2747 63.7888 31.7199C63.8111 32.1651 63.8234 32.6103 63.8234 33.0556Z" fill="white"/>
<path d="M23 52.4001V12.8023H34.1622V7.74455H38.7994V12.866C43.3705 13.0729 46.7112 13.978 48.8204 15.5813C50.9319 17.1823 51.9889 19.5247 51.9889 22.6085C51.9889 24.9134 51.269 26.8566 49.8316 28.4395C48.3966 30.0223 46.4608 30.999 44.0242 31.3686V31.6779C46.592 32.0872 48.7253 33.0128 50.4239 34.4524C52.1213 35.8896 52.9713 38.0899 52.9713 41.052C52.9713 44.6702 51.6759 47.4651 49.0852 49.4391C46.4945 51.4131 43.0659 52.4001 38.7994 52.4001V58.2583H34.1622V52.4001H23ZM30.1172 28.5941H34.1622V19.5247H30.1172V28.5941ZM44.0868 23.8456C44.0868 21.2963 42.3243 19.8772 38.7994 19.5884V28.5304C40.7569 28.4065 42.1281 27.9232 42.9118 27.0795C43.6943 26.2369 44.0868 25.159 44.0868 23.8456ZM30.1172 45.5548H34.1622V35.1301H30.1172V45.5548ZM45.0017 40.1878C45.0017 38.8722 44.5443 37.7317 43.6293 36.7675C42.7168 35.8009 41.1072 35.2551 38.7994 35.1301V45.5548C41.0627 45.473 42.6614 44.9397 43.5956 43.9538C44.5322 42.9657 45.0017 41.7104 45.0017 40.1878Z" fill="#1A1A1A"/>
</svg>
